<svg width="563" height="354" viewBox="0 0 563 354" fill="none" xmlns="http://www.w3.org/2000/svg">
<path d="M379.299 70.5655C371.769 77.0655 364.599 83.6555 356.929 89.6055C354.839 91.2255 351.259 91.3755 348.349 91.4055C332.689 91.5555 317.029 91.3155 301.369 91.5255C298.179 91.5655 294.369 92.0655 291.939 93.8455C283.259 100.216 275.009 107.186 266.699 114.046C265.619 114.936 264.929 116.486 264.449 117.876C259.579 131.876 254.769 145.886 249.999 159.916C249.589 161.116 249.539 162.436 249.249 164.106C250.939 164.306 252.209 164.576 253.479 164.576C264.479 164.606 275.469 164.626 286.469 164.556C293.219 164.516 296.499 162.056 298.809 155.746C300.579 150.906 302.349 146.056 304.299 141.276C305.859 137.476 304.699 136.066 300.689 136.186C295.579 136.346 290.459 136.226 285.359 136.226C285.329 126.626 291.239 119.826 299.799 119.716C316.459 119.506 333.119 119.536 349.779 119.786C357.629 119.906 361.999 126.176 359.409 133.536C354.719 146.886 349.779 160.146 344.709 173.366C340.979 183.106 334.239 187.666 323.209 187.506C290.559 187.026 257.909 187.336 225.249 187.376C218.669 187.386 218.589 187.506 218.479 194.086C218.299 204.666 222.299 213.146 231.619 219.256C218.609 216.456 211.119 204.896 212.249 191.106C213.509 175.726 220.339 162.796 228.789 150.426C256.259 110.236 294.159 84.2355 339.819 68.8555C341.769 68.1955 344.149 68.8155 346.329 68.8955C350.479 69.0455 354.619 69.3155 358.769 69.3755C365.099 69.4755 371.429 69.4255 377.759 69.4755C378.019 69.4855 378.259 69.8155 379.299 70.5655Z" fill="#114574"/>
<path d="M341.478 56.0703C319.568 63.8503 298.188 73.0203 277.968 84.8203C249.948 101.17 224.858 120.98 205.498 147.35C193.418 163.81 185.108 181.78 185.608 202.7C185.758 208.75 187.428 214.77 188.428 221.02C180.778 211.23 180.688 200.12 182.428 188.77C184.498 175.25 189.408 162.55 196.588 151.1C206.448 135.39 212.088 118.01 218.748 100.99C221.478 94.0203 223.898 86.9203 226.758 80.0003C229.638 73.0403 234.968 69.2103 242.638 69.1703C258.468 69.1003 274.298 68.8303 290.118 69.2303C298.128 69.4303 305.538 67.8803 312.988 65.2303C322.398 61.8903 331.988 59.1003 341.478 56.0703Z" fill="#114574"/>
<path d="M394.047 40.3526C404.687 39.2926 414.767 40.4826 424.567 45.8426C416.927 57.4526 405.157 61.1626 392.207 65.4426C396.787 60.5426 400.587 56.7226 404.097 52.6526C407.417 48.8026 407.067 47.6826 402.517 45.1526C399.687 43.5726 396.867 41.9526 394.047 40.3526Z" fill="#114574"/>
<path d="M73.9077 309.812H51.4708C48.8401 309.812 46.6039 308.948 44.7623 307.219C42.9208 305.453 42 303.254 42 300.624V289.969C42 287.338 42.9208 285.158 44.7623 283.429C46.6039 281.663 48.8401 280.78 51.4708 280.78H73.9077V287.545H51.4708C49.6669 287.545 48.7649 288.353 48.7649 289.969V300.624C48.7649 302.24 49.6669 303.048 51.4708 303.048H67.1428V298.65H57.9539V291.886H73.9077V309.812ZM116.313 300.793C116.313 303.236 115.542 305.34 114.002 307.107C112.461 308.873 110.488 309.756 108.082 309.756H88.9151C86.4722 309.756 84.4804 308.873 82.9395 307.107C81.4362 305.34 80.6845 303.236 80.6845 300.793V280.78H87.4494V300.793C87.4494 302.258 87.938 302.991 88.9151 302.991H108.082C109.022 302.991 109.492 302.258 109.492 300.793V280.78H116.313V300.793ZM129.822 309.812H123.058V280.78H129.822V309.812ZM168.378 300.624C168.378 303.254 167.457 305.453 165.616 307.219C163.812 308.948 161.594 309.812 158.963 309.812H136.583V291.491H143.348V303.048H158.963C160.692 303.048 161.557 302.24 161.557 300.624V289.969C161.557 288.353 160.692 287.545 158.963 287.545H136.583V280.78H158.963C161.594 280.78 163.812 281.663 165.616 283.429C167.457 285.158 168.378 287.338 168.378 289.969V300.624ZM206.107 287.545H181.922V291.886H204.528V298.65H181.922V303.048H206.05V309.812H175.157V280.78H206.107V287.545ZM244.646 300.624C244.646 303.254 243.725 305.453 241.884 307.219C240.08 308.948 237.862 309.812 235.231 309.812H212.851V291.491H219.616V303.048H235.231C236.96 303.048 237.825 302.24 237.825 300.624V289.969C237.825 288.353 236.96 287.545 235.231 287.545H212.851V280.78H235.231C237.862 280.78 240.08 281.663 241.884 283.429C243.725 285.158 244.646 287.338 244.646 289.969V300.624Z" fill="#114574"/>
<path d="M303.908 309.812H281.471C278.84 309.812 276.604 308.948 274.762 307.219C272.921 305.453 272 303.254 272 300.624V289.969C272 287.338 272.921 285.158 274.762 283.429C276.604 281.663 278.84 280.78 281.471 280.78H303.908V287.545H281.471C279.667 287.545 278.765 288.353 278.765 289.969V300.624C278.765 302.24 279.667 303.048 281.471 303.048H297.143V298.65H287.954V291.886H303.908V309.812ZM344.734 309.812H335.489L321.001 293.52H338.421C339.661 293.52 340.281 292.524 340.281 290.533C340.281 288.541 339.661 287.545 338.421 287.545H317.449V309.812H310.685V280.78H338.815C341.408 280.78 343.457 281.795 344.96 283.824C346.351 285.666 347.046 287.902 347.046 290.533C347.046 293.163 346.351 295.4 344.96 297.241C343.457 299.271 341.408 300.285 338.815 300.285H336.222L344.734 309.812ZM389.795 300.624C389.795 303.254 388.874 305.453 387.033 307.219C385.191 308.948 382.955 309.812 380.324 309.812H363.299C360.668 309.812 358.432 308.948 356.591 307.219C354.749 305.453 353.828 303.254 353.828 300.624V289.969C353.828 287.338 354.749 285.158 356.591 283.429C358.432 281.663 360.668 280.78 363.299 280.78H380.324C382.955 280.78 385.191 281.663 387.033 283.429C388.874 285.158 389.795 287.338 389.795 289.969V300.624ZM383.03 300.624V289.969C383.03 288.353 382.128 287.545 380.324 287.545H363.299C361.495 287.545 360.593 288.353 360.593 289.969V300.624C360.593 302.24 361.495 303.048 363.299 303.048H380.324C382.128 303.048 383.03 302.24 383.03 300.624ZM441.742 280.78L431.313 309.812H425.45L418.742 291.04L412.033 309.812H406.114L395.685 280.78H402.901L409.045 298.087L415.077 280.78H422.406L422.293 281.005L428.325 298.087L434.583 280.78H441.742ZM480.525 287.545H467.447V309.812H460.682V287.545H447.603V280.78H480.525V287.545ZM517.842 309.812H511.021V298.65H493.658V309.812H486.893V280.78H493.658V291.886H511.021V280.78H517.842V309.812Z" fill="#114574"/>
</svg>
